<svg id="Camada_1" data-name="Camada 1" xmlns="http://www.w3.org/2000/svg" xmlns:xlink="http://www.w3.org/1999/xlink" viewBox="0 0 2000 2000"><defs><linearGradient id="Gradiente_sem_nome_47" x1="1000.1" y1="474.65" x2="1000.1" y2="33.32" gradientUnits="userSpaceOnUse"><stop offset="0" stop-color="#fff"/><stop offset="0.08" stop-color="#fddbeb"/><stop offset="0.18" stop-color="#faafd2"/><stop offset="0.28" stop-color="#f98fbf"/><stop offset="0.36" stop-color="#f77bb4"/><stop offset="0.41" stop-color="#f774b0"/><stop offset="0.92" stop-color="#c543ed"/><stop offset="1" stop-color="#bd3bf7"/></linearGradient></defs><title>logo-mat</title><path d="M1959.29,1000c0,510.8-429.5,924.91-959.29,924.91S40.71,1510.79,40.71,1000c0-429.14,303.13-790,714.21-894.41-.38,1-.76,2-1.17,3-3.68,9.4-10.4,27.86-18.06,61.56-6.53,28.91-9.79,43.35-11,60.06s-2.94,47,8.64,83.52a203.74,203.74,0,0,0,30.95,60.43c31.9,42.27,72.29,60.19,90.72,68.11,27.85,12,50.26,15.49,72.93,19.05a388.94,388.94,0,0,0,118.16.59c20.9-3.15,46.55-7.19,77.58-20.8,14.11-6.14,37.18-16.49,61.16-38.09a215.53,215.53,0,0,0,37.61-45.62c35.55-58.62,28.83-120.32,26.47-143.17-2.63-25.11-8.5-45.61-14.13-65.23a512.18,512.18,0,0,0-17.14-50C1642.61,194.09,1959.29,561.37,1959.29,1000Z" fill="#3101b9"/><path d="M1339.45,739.2c-171,0-309.5,136.62-309.5,305.21s138.54,305.3,309.5,305.3S1649,1213.09,1649,1044.41,1510.41,739.2,1339.45,739.2Zm-130.87,457.26c-65.12,0-118-54.61-118-122s52.87-122,118-122a114.43,114.43,0,0,1,61.92,18.17,41.75,41.75,0,0,0,50.23,65.75,124.66,124.66,0,0,1,5.84,38.08C1326.57,1141.85,1273.78,1196.46,1208.58,1196.46Z" fill="#fff"/><path d="M1326.57,1074.45c0,67.4-52.79,122-118,122s-118-54.61-118-122,52.87-122,118-122a114.43,114.43,0,0,1,61.92,18.17,41.75,41.75,0,0,0,50.23,65.75A124.66,124.66,0,0,1,1326.57,1074.45Z" fill="none" stroke="#a700f5" stroke-miterlimit="10"/><path d="M635,739.2c-171,0-309.5,136.62-309.5,305.21S464,1349.71,635,1349.71s309.5-136.62,309.5-305.3S805.93,739.2,635,739.2Zm122.56,457.26c-65.21,0-118-54.61-118-122s52.79-122,118-122a114.37,114.37,0,0,1,61.91,18.17,41.71,41.71,0,0,0,50.14,65.75,124.39,124.39,0,0,1,5.94,38.08C875.52,1141.85,822.64,1196.46,757.53,1196.46Z" fill="#fff"/><path d="M875.52,1074.45c0,67.4-52.88,122-118,122s-118-54.61-118-122,52.79-122,118-122a114.37,114.37,0,0,1,61.91,18.17,41.71,41.71,0,0,0,50.14,65.75A124.39,124.39,0,0,1,875.52,1074.45Z" fill="none" stroke="#a700f5" stroke-miterlimit="10"/><path d="M1326.57,1074.45c0,67.4-52.79,122-118,122s-118-54.61-118-122,52.87-122,118-122a114.43,114.43,0,0,1,61.92,18.17,41.75,41.75,0,0,0,50.23,65.75A124.66,124.66,0,0,1,1326.57,1074.45Z" fill="#3101b9"/><path d="M875.52,1074.45c0,67.4-52.88,122-118,122s-118-54.61-118-122,52.79-122,118-122a114.37,114.37,0,0,1,61.91,18.17,41.71,41.71,0,0,0,50.14,65.75A124.39,124.39,0,0,1,875.52,1074.45Z" fill="#3101b9"/><circle cx="1000.1" cy="230.52" r="155.41" fill="url(#Gradiente_sem_nome_47)"/><path d="M979.1,1465.79,968,1451.52a914.47,914.47,0,0,1-83.29-128.38h0a7.7,7.7,0,0,1,1.69-9.41l19.54-17.3a124.31,124.31,0,0,1,163.51-1.15l17.89,15.4a8.69,8.69,0,0,1,2,10.59h0a857.34,857.34,0,0,1-84,131.46l-10.12,13.06A10.29,10.29,0,0,1,979.1,1465.79Z" fill="#fff"/></svg>